<svg xmlns="http://www.w3.org/2000/svg" width="320.588" height="121.888" viewBox="0 0 320.588 121.888">
  <g id="Group_37876" data-name="Group 37876" transform="translate(-410.56 -775.357)">
    <g id="Group_35079" data-name="Group 35079" transform="translate(410.56 775.357)">
      <g id="Group_35074" data-name="Group 35074" transform="translate(0 0)">
        <g id="Group_35071" data-name="Group 35071" transform="translate(86.443)">
          <path id="Path_60368" data-name="Path 60368" d="M766.779,794.847a18.879,18.879,0,0,1-.69,5.118,19.73,19.73,0,0,1-1.94,4.611,19.133,19.133,0,0,1-3.021,3.919,19.649,19.649,0,0,1-3.907,3.034,19.284,19.284,0,0,1-14.859,1.953,19.452,19.452,0,0,1-13.518-13.518,19.369,19.369,0,0,1,0-10.249,19.074,19.074,0,0,1,1.953-4.61,19.656,19.656,0,0,1,3.034-3.906,19.1,19.1,0,0,1,3.92-3.022,19.731,19.731,0,0,1,4.61-1.94,19.377,19.377,0,0,1,10.249,0,19.278,19.278,0,0,1,13.478,13.479A19.026,19.026,0,0,1,766.779,794.847Zm-7.423,0a11.548,11.548,0,0,0-.938-4.623,11.836,11.836,0,0,0-6.316-6.316,11.9,11.9,0,0,0-9.259,0,12.191,12.191,0,0,0-3.777,2.539,11.892,11.892,0,0,0-2.553,3.777,11.556,11.556,0,0,0-.937,4.623,11.369,11.369,0,0,0,.938,4.6,12.036,12.036,0,0,0,6.329,6.316,11.893,11.893,0,0,0,9.259,0,11.881,11.881,0,0,0,3.777-2.552,12.236,12.236,0,0,0,2.539-3.764A11.361,11.361,0,0,0,759.357,794.847Z" transform="translate(-728.154 -775.496)" fill="#0c0c0c"/>
          <path id="Path_60369" data-name="Path 60369" d="M892.391,838.438h-7.11V810.543H887l2.344,2.709A12.511,12.511,0,0,1,897.783,810a12.043,12.043,0,0,1,4.818.977,12.479,12.479,0,0,1,3.959,2.683,12.706,12.706,0,0,1,2.67,3.985,12.2,12.2,0,0,1,.977,4.858v15.94H903.1V822.5a5.217,5.217,0,0,0-.417-2.07,5.354,5.354,0,0,0-1.146-1.706,5.424,5.424,0,0,0-1.693-1.146,5.144,5.144,0,0,0-2.057-.417,5.4,5.4,0,0,0-2.11.417,5.3,5.3,0,0,0-2.865,2.852,5.218,5.218,0,0,0-.417,2.07Z" transform="translate(-842.514 -800.568)" fill="#0c0c0c"/>
          <path id="Path_60370" data-name="Path 60370" d="M1002.547,830.222a4.033,4.033,0,0,0,.834.169q.416.039.833.039a7.01,7.01,0,0,0,2.006-.286,7.261,7.261,0,0,0,1.81-.82,6.753,6.753,0,0,0,1.511-1.3,6.86,6.86,0,0,0,1.081-1.706l5.209,5.235a14.057,14.057,0,0,1-2.279,2.526,14.358,14.358,0,0,1-2.786,1.9,13.938,13.938,0,0,1-3.152,1.185,14.287,14.287,0,0,1-3.4.4,14.086,14.086,0,0,1-10.066-4.141,14.3,14.3,0,0,1-3.06-4.649,15.3,15.3,0,0,1-1.12-5.926,15.8,15.8,0,0,1,1.12-6.042,13.656,13.656,0,0,1,7.592-7.657,14.385,14.385,0,0,1,5.535-1.068,14.016,14.016,0,0,1,3.412.417,14.275,14.275,0,0,1,5.965,3.112,14.176,14.176,0,0,1,2.292,2.539Zm3.647-14.664a4.125,4.125,0,0,0-.977-.234,9.364,9.364,0,0,0-1-.052,7.117,7.117,0,0,0-2.748.534,6.545,6.545,0,0,0-2.24,1.524,7.187,7.187,0,0,0-1.5,2.383,8.535,8.535,0,0,0-.547,3.138q0,.391.039.886t.13,1q.091.508.221.977a3.609,3.609,0,0,0,.339.834Z" transform="translate(-918.707 -799.176)" fill="#0c0c0c"/>
          <path id="Path_60371" data-name="Path 60371" d="M1125.455,809.4a19.263,19.263,0,0,1-17.646,3.946,19.448,19.448,0,0,1-13.517-13.518,19.349,19.349,0,0,1,0-10.249,19.276,19.276,0,0,1,1.953-4.623,19.451,19.451,0,0,1,11.564-8.908,18.891,18.891,0,0,1,5.118-.69,19.292,19.292,0,0,1,6.694,1.185,18.574,18.574,0,0,1,5.834,3.451L1121.5,786.5a11.187,11.187,0,0,0-3.881-2.722,11.882,11.882,0,0,0-4.688-.951,11.522,11.522,0,0,0-4.636.938,12.19,12.19,0,0,0-3.776,2.539,11.9,11.9,0,0,0-2.553,3.777,11.551,11.551,0,0,0-.937,4.623,11.363,11.363,0,0,0,.937,4.6,12.04,12.04,0,0,0,6.329,6.316,11.516,11.516,0,0,0,4.636.938,11.876,11.876,0,0,0,4.688-.951,11.181,11.181,0,0,0,3.881-2.721Z" transform="translate(-994.133 -775.357)" fill="#0c0c0c"/>
          <path id="Path_60372" data-name="Path 60372" d="M1243.242,837.045h-1.719l-2.761-3.829a22.877,22.877,0,0,1-2.149,1.706,15.88,15.88,0,0,1-2.383,1.38,14.6,14.6,0,0,1-2.565.925,10.676,10.676,0,0,1-2.67.339,15.383,15.383,0,0,1-5.535-.99,13.136,13.136,0,0,1-4.532-2.878,13.471,13.471,0,0,1-3.061-4.623,16.3,16.3,0,0,1-1.12-6.225,15.552,15.552,0,0,1,1.12-5.977,14.222,14.222,0,0,1,3.061-4.675,13.809,13.809,0,0,1,4.532-3.035,14.245,14.245,0,0,1,5.535-1.08,10.82,10.82,0,0,1,2.682.339,13.9,13.9,0,0,1,2.579.938,16.07,16.07,0,0,1,2.383,1.407,19.726,19.726,0,0,1,2.123,1.745l2.761-3.308h1.719Zm-7.163-14.195a7.4,7.4,0,0,0-.56-2.826A8.152,8.152,0,0,0,1234,817.6a7.6,7.6,0,0,0-2.253-1.693,6.116,6.116,0,0,0-2.748-.638,7.61,7.61,0,0,0-2.748.495,6.266,6.266,0,0,0-2.24,1.459,6.845,6.845,0,0,0-1.5,2.383,9.881,9.881,0,0,0,0,6.485,6.84,6.84,0,0,0,1.5,2.383,6.256,6.256,0,0,0,2.24,1.459,7.6,7.6,0,0,0,2.748.495,6.106,6.106,0,0,0,2.748-.638A7.589,7.589,0,0,0,1234,828.1a8.151,8.151,0,0,0,1.523-2.423A7.394,7.394,0,0,0,1236.079,822.851Z" transform="translate(-1082.306 -799.176)" fill="#0c0c0c"/>
          <path id="Path_60373" data-name="Path 60373" d="M1346.45,839.9h-7.11v-27.9h1.719l2.344,3.308a12.571,12.571,0,0,1,8.438-3.256h6.277v7.084h-6.277a5.391,5.391,0,0,0-2.11.417,5.355,5.355,0,0,0-3.282,4.975Z" transform="translate(-1172.987 -802.031)" fill="#0c0c0c"/>
        </g>
        <g id="Group_35072" data-name="Group 35072" transform="translate(86.86 55.318)">
          <path id="Path_60374" data-name="Path 60374" d="M747.328,1040.584a32.315,32.315,0,0,1-12.961-11.8A32.235,32.235,0,0,1,747.328,982.8a43.794,43.794,0,0,1,37.456,0,31.532,31.532,0,0,1,12.9,11.744,32.4,32.4,0,0,1-12.9,46.039,43.246,43.246,0,0,1-37.456,0Zm25.979-19.631q2.853-3.331,2.855-9.29t-2.855-9.231a9.8,9.8,0,0,0-14.616,0q-2.856,3.273-2.855,9.231t2.855,9.29a9.684,9.684,0,0,0,14.616,0Z" transform="translate(-729.685 -978.595)" fill="#6210ff"/>
          <path id="Path_60375" data-name="Path 60375" d="M1109.453,982.888l-21.7,63.918h-25.123l-9.478-29.563-9.821,29.563h-25.123l-21.7-63.918h24.437l10.734,33.77,11.191-33.77H1064.8l10.848,34.121,11.192-34.121Z" transform="translate(-923.889 -981.719)" fill="#6210ff"/>
        </g>
        <g id="Group_35073" data-name="Group 35073" transform="translate(0 38.221)">
          <path id="Path_60376" data-name="Path 60376" d="M489.149,915.78v81.584h-22.1l-30.3-37.062v37.063h-26.2V915.78h22.1l30.3,37.063V915.78Z" transform="translate(-410.56 -915.78)" fill="#6210ff"/>
        </g>
      </g>
      <g id="Group_35076" data-name="Group 35076" transform="translate(275.261 0.455)">
        <g id="Group_35075" data-name="Group 35075">
          <path id="Path_60377" data-name="Path 60377" d="M1421.875,777.027H1467.2l-7.554,74.212h-30.219Z" transform="translate(-1421.875 -777.027)" fill="#6210ff"/>
        </g>
      </g>
      <g id="Group_35078" data-name="Group 35078" transform="translate(278.523 82.474)">
        <g id="Group_35077" data-name="Group 35077">
          <path id="Path_60378" data-name="Path 60378" d="M1453.567,1078.367a19.707,19.707,0,1,0,19.708,19.707A19.784,19.784,0,0,0,1453.567,1078.367Zm0,4.619a15.194,15.194,0,0,1,14.473,10.859,1.144,1.144,0,0,0-.586-.627,31.482,31.482,0,0,0-27.773,0,1.137,1.137,0,0,0-.585.627A15.192,15.192,0,0,1,1453.567,1082.986Zm-14.79,18.061a1.153,1.153,0,0,0,.952.846l2.774.386a8.123,8.123,0,0,1,6.859,6.858l.386,2.775a1.145,1.145,0,0,0,.682.885A15.218,15.218,0,0,1,1438.777,1101.047Zm14.79.491a3.464,3.464,0,1,1,3.465-3.464A3.468,3.468,0,0,1,1453.567,1101.538Zm3.137,11.259a1.144,1.144,0,0,0,.682-.885l.386-2.775a8.122,8.122,0,0,1,6.858-6.858l2.775-.386a1.153,1.153,0,0,0,.952-.846A15.216,15.216,0,0,1,1456.7,1112.8Z" transform="translate(-1433.86 -1078.367)" fill="#6210ff"/>
        </g>
      </g>
    </g>
  </g>
</svg>
